<?xml version="1.0" encoding="utf-8"?>
<!-- Generator: Adobe Illustrator 15.0.0, SVG Export Plug-In  -->
<!DOCTYPE svg PUBLIC "-//W3C//DTD SVG 1.1//EN" "http://www.w3.org/Graphics/SVG/1.1/DTD/svg11.dtd" [
	<!ENTITY ns_flows "http://ns.adobe.com/Flows/1.0/">
]>
<svg version="1.1"
	 xmlns="http://www.w3.org/2000/svg" xmlns:xlink="http://www.w3.org/1999/xlink" xmlns:a="http://ns.adobe.com/AdobeSVGViewerExtensions/3.0/"
	 x="0px" y="0px" viewBox="0 0 668 527" enable-background="new 0 0 668 527" xml:space="preserve">
<defs>
</defs>
<path fill="#300018" d="M355.35,1.052v223.719h-10.093v-84.946h-80.741v15.139h65.601v69.807h-10.091v-59.713h-30.278v59.713
	h-10.093v-59.713h-15.139v59.713h-10.092V1.052h10.092v128.681h15.139V1.052h10.093v128.681h30.278V1.052h10.091v128.681h15.14
	V1.052H355.35z"/>
<polygon fill="#300018" points="506,12 506,0 420,0 420,214.958 420,225 506,225 506,216 444.359,216 429,216 429,201 444.359,201 
	506,201 506,189 456,189 456,132 506,132 506,120 444,120 444,189 429,189 429,105 506,105 506,96 456,96 456,36 506,36 506,24 
	444,24 444,96 429,96 429,12 "/>
<polygon fill="#300018" points="23.207,503 49.279,503 96,503 96,494 49.279,494 33,494 33,477.54 33,303 24,303 24,477.54 24,494 
	9,494 9,303 0,303 0,527 23.207,527 32.739,527 96,527 96,518 23.207,518 9,518 9,503 "/>
<polygon fill="#300018" points="595.583,201 621.655,201 668,201 668,192 621.655,192 605,192 605,174.869 605,0 596,0 596,174.869 
	596,192 581,192 581,0 572,0 572,225 595.583,225 605.115,225 668,225 668,216 595.583,216 581,216 581,201 "/>
<path fill="#300018" d="M246.026,353.863v122.793c0,14.299-6.167,28.316-16.541,37.567c-8.971,7.849-21.307,12.335-34.483,12.335
	c-12.335,0-23.829-3.646-33.642-12.335c-10.373-9.251-16.541-23.269-16.541-37.567V353.863c0-14.296,6.167-28.313,16.541-37.567
	c8.69-8.97,20.186-13.456,33.642-13.456c12.056,0,25.512,3.646,34.483,13.456C239.859,325.55,246.026,339.567,246.026,353.863z
	 M236.776,353.863c0-11.492-4.766-22.707-13.458-30.277c-7.009-6.729-17.382-11.215-28.315-11.215
	c-10.373,0-19.344,3.644-27.474,11.215c-8.69,7.57-13.456,18.785-13.456,30.277v122.793c0,11.495,4.766,22.71,13.456,30.277
	c7.009,6.731,15.98,10.094,27.474,10.094c9.813,0,20.466-2.525,28.315-10.094c8.691-7.567,13.458-18.782,13.458-30.277V353.863z
	 M222.758,353.863v122.793c0,7.568-3.083,14.299-9.813,19.625c-4.766,4.483-11.494,6.45-17.942,6.45
	c-6.728,0-12.896-1.967-18.222-6.45c-5.607-5.326-8.691-12.057-8.691-19.625V353.863c0-7.57,3.084-14.296,8.691-19.622
	c5.327-4.489,11.494-6.45,18.222-6.45c6.448,0,13.176,1.961,17.942,6.45C219.675,339.567,222.758,346.293,222.758,353.863z
	 M212.385,353.863c0-5.045-1.962-9.251-5.607-12.335c-3.364-3.085-7.57-4.205-11.775-4.205c-4.485,0-8.69,1.12-12.054,4.205
	c-3.645,3.084-5.607,7.29-5.607,12.335v122.793c0,5.045,1.962,9.254,5.607,12.335c3.364,3.085,7.569,4.206,12.054,4.206
	c4.205,0,8.411-1.121,11.775-4.206c3.645-3.081,5.607-7.29,5.607-12.335V353.863z"/>
<path fill="#300018" d="M82.689,172.725c-1.615,2.202-29.473,7.427-29.473,7.427s-0.351-8.287,1.629-11.555
	c1.984-3.266,29.633-6.876,29.633-6.876"/>
<path fill="#300018" d="M86.346,172.725c1.123,1.893,29.473,7.427,29.473,7.427s0.354-8.287-1.629-11.555
	c-1.984-3.266-29.632-6.876-29.632-6.876"/>
<path fill="#300018" d="M156.906,42.249c-7.403-20.35-15.764-30.441-30.749-36.728C99.077-5.846,41.834,4.046,19.275,29.113
	C1.942,48.371,4.586,85.476,4.049,108.332c1.263-3.493,9.966-1.084,10.688,6.756h0.015c0.11,2.902,0.906,21.258,4.245,45.463
	c3.768,27.306,29.786,62.829,53.104,62.785c12.174-0.015,14.959,0.029,26.412-0.05c24.037-1.212,49.107-35.506,52.863-62.735
	c3.341-24.205,4.14-42.562,4.25-45.463h0.128c0.414-3.301,1.771-8.677,9.612-7.026C165.887,91.722,164.39,62.82,156.906,42.249z
	 M136.792,155.874c-6.773,13.468-12.398,19.981-15.828,26.584c-3.431,6.602-4.805,22.232-7.283,25.534
	c-0.835,1.115-9.401,1.709-24.854,1.784v-25.358h-8.016v25.351c-15.171-0.105-23.283-0.714-24.118-1.826
	c-2.477-3.301-3.855-18.984-7.282-25.586c-3.433-6.604-9.056-13.014-15.828-26.482c-6.773-13.466-14.883-36.969-15.112-41.199
	c-0.227-4.23,2.646-47.03,10.156-61.351c2.35-4.475,59.291-8.136,104.823,1.099c12.804,5.175,18.49,56.435,18.547,60.252
	C152.054,118.491,143.565,142.408,136.792,155.874z"/>
<path fill="#300018" d="M6.891,103.183c0.006,0.083,0.006,0.167,0,0.347c-0.004,0.158-0.016,0.266-0.032,0.392
	c-0.034,0.245-0.088,0.467-0.148,0.673c-0.12,0.416-0.263,0.768-0.399,1.107c-0.279,0.67-0.547,1.282-0.775,1.91
	c-0.468,1.247-0.78,2.534-0.963,3.867c-0.358,2.666-0.223,5.442,0.145,8.183c0.764,5.502,2.382,10.907,4.241,16.197
	c-2.242-5.142-4.265-10.421-5.461-15.986c-0.581-2.78-0.948-5.646-0.772-8.574c0.088-1.459,0.333-2.938,0.749-4.356
	c0.204-0.708,0.448-1.405,0.659-2.047c0.215-0.657,0.363-1.189,0.29-1.564L6.891,103.183z"/>
<path fill="#300018" d="M164.894,103.33c-0.072,0.375,0.073,0.907,0.29,1.564c0.211,0.642,0.458,1.339,0.657,2.047
	c0.417,1.418,0.663,2.897,0.75,4.356c0.176,2.928-0.191,5.794-0.772,8.574c-1.195,5.565-3.219,10.844-5.461,15.986
	c1.858-5.29,3.477-10.695,4.241-16.197c0.366-2.741,0.506-5.517,0.142-8.183c-0.18-1.333-0.493-2.621-0.958-3.867
	c-0.229-0.628-0.497-1.239-0.777-1.91c-0.137-0.339-0.279-0.692-0.399-1.107c-0.06-0.207-0.113-0.429-0.148-0.673
	c-0.016-0.126-0.027-0.234-0.033-0.392c-0.004-0.18-0.003-0.263,0-0.347L164.894,103.33z"/>
<g>
	<g>
		<g>
			<path fill="#300018" d="M76.676,100.607c0,0,7.324-5.004,14.324-0.105v5.291c-6-1.784-13.071,0-13.071,0L76.676,100.607z"/>
		</g>
		<g>
			<path fill="#300018" d="M90.505,99.791c0,0,11.609-12.375,58.327-1.44c0,0,2.023,35.096-14.73,38.503
				c-16.76,3.409-29.275-0.212-32.238-3.549C90.059,119.461,90.505,99.791,90.505,99.791z"/>
		</g>
		<g>
			<path fill="#300018" d="M94.308,101.971c1.166-2.001,10.433-9.245,47.113-2.132c1.276,0.248,3.047,0.12,4.358,2.234
				c1.137,1.836,1.31,29.331-13.344,32.312c-14.653,2.98-25.601-0.185-28.191-3.105C93.918,119.171,93.142,103.971,94.308,101.971z"
				/>
		</g>
		<g>
			<path fill="#300018" d="M79.043,99.791c0,0-11.611-12.375-58.328-1.44c0,0-2.025,35.096,14.732,38.503
				c16.756,3.409,29.272-0.212,32.234-3.549C79.487,119.461,79.043,99.791,79.043,99.791z"/>
		</g>
		<g>
			<path fill="#300018" d="M75.237,101.971c-1.166-2.001-10.433-9.245-47.114-2.132c-1.27,0.248-3.046,0.12-4.353,2.234
				c-1.139,1.836-1.317,29.331,13.337,32.312c14.657,2.98,25.605-0.185,28.197-3.105C75.632,119.171,76.4,103.971,75.237,101.971z"
				/>
		</g>
	</g>
</g>
<rect x="356.612" y="311.659" fill="none" width="339.233" height="250.228"/>
<path d="M318.936,340.179v1.361c-0.907,0.202-2.016,0.403-3.177,0.403c-1.715,0-6.002-0.099-6.002-5.952v-16.944h-3.531v-1.262
	h3.531v-6.71h1.412v6.71h7.666v1.262h-7.666v16.895c0,4.237,2.875,4.691,4.741,4.691
	C317.021,340.633,318.028,340.48,318.936,340.179z"/>
<path d="M343.857,326.612v14.98h-1.412v-14.98c0-5.599-2.773-7.817-7.615-7.817c-3.33,0-6.607,1.106-9.029,2.269v20.529h-1.412
	v-33.037h1.412v11.146c2.471-1.158,5.75-2.32,9.18-2.32C340.529,317.382,343.857,320.206,343.857,326.612z"/>
<path d="M370.954,329.588c-0.05,0.604-0.05,0.755-0.05,0.854h-19.217c0,0.457,0.102,0.808,0.202,1.112
	c0.353,6.708,4.64,9.028,9.731,9.028c2.877,0,5.701-0.556,7.668-1.565v1.463c-2.119,0.907-4.992,1.463-7.768,1.463
	c-5.598,0-11.297-2.622-11.297-11.951c0-4.794,1.815-12.561,10.643-12.561C370.447,317.432,370.954,327.37,370.954,329.588z
	 M351.688,329.185h17.803v-0.557c-0.102-2.622-1.108-9.886-8.674-9.886C354.311,318.742,351.838,323.483,351.688,329.185z"/>
<path d="M378.227,320.51v21.083h-1.41v-21.99c1.463-0.608,5.697-2.118,10.792-2.221v1.36
	C383.424,318.895,379.994,319.901,378.227,320.51z"/>
<path d="M411.27,329.588c-0.05,0.604-0.05,0.755-0.05,0.854h-19.215c0,0.457,0.099,0.808,0.198,1.112
	c0.354,6.708,4.642,9.028,9.734,9.028c2.876,0,5.7-0.556,7.667-1.565v1.463c-2.119,0.907-4.993,1.463-7.767,1.463
	c-5.599,0-11.297-2.622-11.297-11.951c0-4.794,1.814-12.561,10.641-12.561C410.764,317.432,411.27,327.37,411.27,329.588z
	 M392.005,329.185h17.802v-0.557c-0.103-2.622-1.109-9.886-8.675-9.886C394.627,318.742,392.153,323.483,392.005,329.185z"/>
<path d="M420.965,337.557l-3.025,8.725h-1.411l2.821-8.725H420.965z"/>
<path d="M477.868,326.105v15.487h-1.411v-15.487c0-4.741-2.118-7.311-7.164-7.311c-3.682,0-6.909,1.259-9.177,2.622
	c0.655,1.259,0.907,2.774,0.907,4.688v15.487h-1.364v-15.487c0-4.741-2.218-7.311-7.211-7.311c-3.026,0-6.052,1.007-8.224,2.066
	v20.731h-1.41v-21.539c2.168-1.159,5.853-2.672,9.786-2.672c3.076,0,5.344,0.957,6.757,2.924c2.421-1.461,5.851-2.924,10.035-2.924
	C474.689,317.382,477.868,320.054,477.868,326.105z"/>
<path d="M501.44,317.785h1.514c-3.43,9.128-6.808,18.156-10.237,27.185c-1.817,4.841-4.29,6.154-6.962,6.154
	c-0.857,0-1.765-0.255-2.269-0.453v-1.312c0.554,0.302,1.563,0.404,2.269,0.404c2.522,0,4.387-1.668,5.698-5.197l0.96-2.57
	c-3.278-8.021-6.506-16.09-9.734-24.211h1.514c2.923,7.466,5.949,14.929,8.876,22.394
	C495.896,332.714,498.667,325.251,501.44,317.785z"/>
<path d="M541.905,326.059v15.534h-1.41v-15.534c0-4.694-2.318-7.264-7.714-7.264c-3.281,0-6.456,1.007-8.827,2.166v20.632h-1.416
	v-21.437c2.271-1.262,6.104-2.774,10.392-2.774C538.578,317.382,541.905,320.054,541.905,326.059z"/>
<path d="M567.237,327.417v7.415c0,6.304-6.556,7.111-9.481,7.111c-3.126,0-9.836-1.006-9.836-7.263c0-6.96,8.372-7.463,11.196-7.463
	c2.924,0,5.145,0.403,6.711,0.705c0-5.85-2.02-9.128-8.678-9.128c-2.824,0-5.294,0.604-6.657,1.007v-1.36
	c1.814-0.554,4.237-1.01,6.707-1.01C564.563,317.432,567.237,321.014,567.237,327.417z M565.874,329.185
	c-1.361-0.252-3.731-0.656-6.605-0.656c-2.927,0-9.936,0.404-9.936,6.152c0,5.045,5.446,6.005,8.423,6.005
	c2.823,0,8.118-0.86,8.118-5.854V329.185z"/>
<path d="M609.464,326.105v15.487h-1.413v-15.487c0-4.741-2.119-7.311-7.162-7.311c-3.681,0-6.909,1.259-9.18,2.622
	c0.655,1.259,0.907,2.774,0.907,4.688v15.487h-1.358v-15.487c0-4.741-2.221-7.311-7.214-7.311c-3.025,0-6.052,1.007-8.221,2.066
	v20.731h-1.413v-21.539c2.169-1.159,5.85-2.672,9.783-2.672c3.079,0,5.35,0.957,6.761,2.924c2.423-1.461,5.85-2.924,10.037-2.924
	C606.288,317.382,609.464,320.054,609.464,326.105z"/>
<path d="M636.817,329.588c-0.05,0.604-0.05,0.755-0.05,0.854h-19.215c0,0.457,0.103,0.808,0.202,1.112
	c0.351,6.708,4.642,9.028,9.733,9.028c2.874,0,5.7-0.556,7.667-1.565v1.463c-2.118,0.907-4.992,1.463-7.767,1.463
	c-5.602,0-11.299-2.622-11.299-11.951c0-4.794,1.816-12.561,10.644-12.561C636.314,317.432,636.817,327.37,636.817,329.588z
	 M617.553,329.185h17.802v-0.557c-0.1-2.622-1.106-9.886-8.674-9.886C620.175,318.742,617.702,323.483,617.553,329.185z"/>
<path d="M308.495,370.267h1.513v3.529h-1.513V370.267z M308.546,378.338h1.412v23.804h-1.412V378.338z"/>
<path d="M332.205,395.99c0,3.529-2.521,6.503-8.473,6.503c-3.228,0-5.7-0.655-7.818-1.51v-1.464c2.22,0.96,4.842,1.615,7.767,1.615
	c4.792,0,7.112-2.171,7.112-5.145c0-7.819-14.425-3.28-14.425-11.806c0-3.377,2.321-6.251,7.717-6.251
	c2.572,0,4.842,0.604,6.759,1.312v1.41c-1.816-0.705-4.085-1.36-6.658-1.36c-3.883,0-6.456,1.765-6.456,4.89
	C317.73,391.196,332.205,386.909,332.205,395.99z"/>
<path d="M361.926,402.142h-1.361c-3.379-10.389-6.707-20.831-10.035-31.272h1.512c3.025,9.736,6.104,19.47,9.18,29.207l9.379-29.207
	h1.364l9.329,29.207l9.23-29.207h1.514c-3.381,10.441-6.708,20.884-10.035,31.272h-1.364l-9.382-28.948L361.926,402.142z"/>
<path d="M397.453,370.267h1.514v3.529h-1.514V370.267z M397.506,378.338h1.411v23.804h-1.411V378.338z"/>
<path d="M406.637,402.142v-33.034h1.414v33.034H406.637z"/>
<path d="M415.92,402.142v-33.034h1.413v33.034H415.92z"/>
<path d="M426.414,398.156h1.516v3.985h-1.516V398.156z"/>
<path d="M451.793,370.869v31.272h-1.411v-31.272H451.793z"/>
<path d="M463.347,370.366l-3.026,8.727h-1.41l2.874-8.727H463.347z"/>
<path d="M505.166,386.658v15.483h-1.413v-15.483c0-4.741-2.119-7.313-7.161-7.313c-3.682,0-6.912,1.261-9.181,2.622
	c0.655,1.261,0.91,2.774,0.91,4.691v15.483h-1.363v-15.483c0-4.741-2.219-7.313-7.211-7.313c-3.026,0-6.053,1.01-8.224,2.065v20.731
	h-1.411v-21.536c2.166-1.161,5.851-2.672,9.784-2.672c3.075,0,5.347,0.957,6.757,2.924c2.423-1.46,5.853-2.924,10.038-2.924
	C501.988,377.934,505.166,380.605,505.166,386.658z"/>
<path d="M545.54,387.969v7.413c0,6.307-6.558,7.111-9.481,7.111c-3.129,0-9.839-1.007-9.839-7.261c0-6.962,8.375-7.466,11.196-7.466
	c2.927,0,5.146,0.404,6.711,0.708c0-5.853-2.017-9.13-8.678-9.13c-2.82,0-5.294,0.605-6.654,1.01v-1.361
	c1.814-0.556,4.234-1.013,6.707-1.013C542.865,377.98,545.54,381.563,545.54,387.969z M544.177,389.733
	c-1.364-0.252-3.734-0.655-6.608-0.655c-2.927,0-9.936,0.403-9.936,6.154c0,5.042,5.446,6.002,8.426,6.002
	c2.821,0,8.118-0.857,8.118-5.853V389.733z"/>
<path d="M589.034,402.142c-6.913-9.684-13.872-19.367-20.831-29.051v29.051h-1.414v-31.272h1.514l20.831,29.104v-29.104h1.41v31.272
	H589.034z"/>
<path d="M618.199,390.138c-0.053,0.605-0.053,0.755-0.053,0.857h-19.215c0,0.453,0.1,0.808,0.201,1.108
	c0.354,6.708,4.639,9.031,9.734,9.031c2.876,0,5.697-0.556,7.664-1.565v1.464c-2.116,0.906-4.992,1.46-7.767,1.46
	c-5.596,0-11.297-2.622-11.297-11.952c0-4.79,1.814-12.561,10.641-12.561C617.693,377.98,618.199,387.919,618.199,390.138z
	 M598.932,389.733h17.805v-0.553c-0.103-2.625-1.112-9.886-8.674-9.886C601.554,379.295,599.084,384.035,598.932,389.733z"/>
<path d="M631.676,402.142h-1.313l-8.622-23.804h1.51l7.771,21.738l7.261-21.738h1.264c2.471,7.261,4.841,14.524,7.311,21.738
	l7.768-21.738h1.516l-8.628,23.804h-1.36l-7.214-21.639L631.676,402.142z"/>
<path d="M336.388,431.422v31.27h-1.413v-28.899l-12.609,17.954l-12.559-17.954v28.899h-1.412v-31.27h1.463l12.508,18.006
	l12.559-18.006H336.388z"/>
<path d="M364.092,450.687c-0.053,0.608-0.053,0.758-0.053,0.86h-19.215c0,0.454,0.102,0.808,0.203,1.109
	c0.352,6.707,4.64,9.028,9.734,9.028c2.874,0,5.698-0.557,7.664-1.563v1.463c-2.115,0.907-4.992,1.46-7.767,1.46
	c-5.599,0-11.298-2.622-11.298-11.954c0-4.788,1.816-12.558,10.643-12.558C363.588,438.533,364.092,448.469,364.092,450.687z
	 M344.824,450.286h17.805v-0.554c-0.1-2.625-1.109-9.886-8.675-9.886C347.447,439.847,344.976,444.588,344.824,450.286z"/>
<path d="M380.545,438.483c2.674,0,5.349,0.556,7.567,1.41v-10.236h1.41v26.174c0,1.817-0.957,7.214-9.276,7.214
	c-4.188,0-10.645-1.563-10.645-12.405C369.602,440.701,375.3,438.483,380.545,438.483z M380.246,461.784
	c6.403,0,7.866-3.834,7.866-5.9v-14.576c-2.119-0.907-4.894-1.514-7.567-1.514c-5.295,0-9.529,2.371-9.529,10.846
	C371.016,460.423,376.459,461.784,380.246,461.784z"/>
<path d="M396.95,430.815h1.51v3.532h-1.51V430.815z M397,438.887h1.413v23.805H397V438.887z"/>
<path d="M423.938,448.521v7.412c0,6.307-6.559,7.111-9.481,7.111c-3.129,0-9.84-1.01-9.84-7.261c0-6.962,8.376-7.468,11.197-7.468
	c2.927,0,5.145,0.403,6.711,0.708c0-5.851-2.017-9.131-8.678-9.131c-2.821,0-5.294,0.608-6.654,1.01v-1.36
	c1.814-0.557,4.234-1.01,6.707-1.01C421.264,438.533,423.938,442.115,423.938,448.521z M422.574,450.286
	c-1.363-0.255-3.733-0.656-6.607-0.656c-2.927,0-9.936,0.401-9.936,6.154c0,5.043,5.446,6,8.426,6c2.82,0,8.117-0.854,8.117-5.851
	V450.286z"/>
<path d="M454.415,431.422c9.985,0,14.878,5.297,14.878,15.686c0,10.393-4.893,15.584-14.878,15.584h-9.23v-31.27H454.415z
	 M446.599,461.433h7.717c9.23,0,13.567-4.741,13.567-14.325c0-9.631-4.337-14.372-13.567-14.372h-7.717V461.433z"/>
<path d="M495.787,450.687c-0.05,0.608-0.05,0.758-0.05,0.86h-19.216c0,0.454,0.1,0.808,0.199,1.109
	c0.354,6.707,4.642,9.028,9.733,9.028c2.877,0,5.701-0.557,7.668-1.563v1.463c-2.119,0.907-4.993,1.46-7.768,1.46
	c-5.598,0-11.296-2.622-11.296-11.954c0-4.788,1.814-12.558,10.641-12.558C495.28,438.533,495.787,448.469,495.787,450.687z
	 M476.521,450.286h17.802v-0.554c-0.103-2.625-1.108-9.886-8.674-9.886C479.144,439.847,476.671,444.588,476.521,450.286z"/>
<path d="M519.202,438.887h1.513l-10.141,23.805h-1.357c-3.383-7.919-6.711-15.836-10.141-23.805h1.513l9.33,21.99
	C512.998,453.563,516.123,446.25,519.202,438.887z"/>
<path d="M544.935,450.687c-0.05,0.608-0.05,0.758-0.05,0.86h-19.216c0,0.454,0.1,0.808,0.199,1.109
	c0.354,6.707,4.642,9.028,9.733,9.028c2.877,0,5.701-0.557,7.668-1.563v1.463c-2.119,0.907-4.993,1.46-7.768,1.46
	c-5.598,0-11.296-2.622-11.296-11.954c0-4.788,1.814-12.558,10.641-12.558C544.428,438.533,544.935,448.469,544.935,450.687z
	 M525.669,450.286h17.803v-0.554c-0.103-2.625-1.109-9.886-8.675-9.886C528.291,439.847,525.818,444.588,525.669,450.286z"/>
<path d="M551.101,462.691v-33.034h1.41v33.034H551.101z"/>
<path d="M581.618,450.839c0,10.038-6.005,12.206-11.048,12.206c-5.095,0-11.196-2.168-11.196-12.206
	c0-10.138,6.102-12.355,11.196-12.355C575.613,438.483,581.618,440.701,581.618,450.839z M580.205,450.839
	c0-8.674-4.592-11.045-9.635-11.045c-5.042,0-9.783,2.371-9.783,11.045c0,8.574,4.741,10.945,9.783,10.945
	C575.613,461.784,580.205,459.413,580.205,450.839z"/>
<path d="M607.907,450.892c0,9.985-5.651,12.153-10.896,12.153c-2.722,0-5.396-0.553-7.615-1.36v10.187h-1.413v-26.124
	c0-1.814,0.957-7.264,9.28-7.264C601.451,438.483,607.907,440.099,607.907,450.892z M606.546,450.892
	c0-9.733-5.449-11.098-9.282-11.098c-6.403,0-7.867,3.834-7.867,5.9v14.576c2.119,0.91,4.894,1.464,7.615,1.464
	C602.256,461.734,606.546,459.413,606.546,450.892z"/>
<path d="M634.497,450.687c-0.05,0.608-0.05,0.758-0.05,0.86h-19.215c0,0.454,0.099,0.808,0.198,1.109
	c0.354,6.707,4.642,9.028,9.733,9.028c2.877,0,5.701-0.557,7.668-1.563v1.463c-2.119,0.907-4.993,1.46-7.768,1.46
	c-5.598,0-11.296-2.622-11.296-11.954c0-4.788,1.814-12.558,10.641-12.558C633.991,438.533,634.497,448.469,634.497,450.687z
	 M615.232,450.286h17.802v-0.554c-0.103-2.625-1.109-9.886-8.675-9.886C617.854,439.847,615.381,444.588,615.232,450.286z"/>
<path d="M641.77,441.608v21.083h-1.411v-21.99c1.464-0.603,5.698-2.118,10.793-2.218v1.363
	C646.967,439.996,643.537,441.006,641.77,441.608z"/>
<path d="M311.774,496.41v3.026h7.666v1.211h-7.666v22.596h-1.362v-22.596h-3.531v-1.211h3.531v-2.974
	c0-6.76,4.741-6.859,6.456-6.859c1.059,0,2.018,0.198,2.824,0.403v1.259c-0.757-0.199-1.664-0.404-2.623-0.404
	C315.305,490.861,311.774,490.964,311.774,496.41z"/>
<path d="M325.65,502.161v21.082h-1.414v-21.989c1.463-0.606,5.7-2.119,10.794-2.222v1.364
	C330.846,500.548,327.415,501.555,325.65,502.161z"/>
<path d="M360.155,511.391c0,10.035-6.002,12.207-11.046,12.207c-5.094,0-11.197-2.172-11.197-12.207
	c0-10.137,6.104-12.358,11.197-12.358C354.153,499.032,360.155,501.254,360.155,511.391z M358.742,511.391
	c0-8.677-4.589-11.047-9.633-11.047s-9.785,2.37-9.785,11.047c0,8.575,4.741,10.945,9.785,10.945S358.742,519.966,358.742,511.391z"
	/>
<path d="M401.776,507.759v15.484h-1.414v-15.484c0-4.74-2.118-7.313-7.161-7.313c-3.682,0-6.909,1.261-9.181,2.622
	c0.656,1.261,0.907,2.774,0.907,4.69v15.484h-1.357v-15.484c0-4.74-2.221-7.313-7.214-7.313c-3.026,0-6.052,1.009-8.221,2.068
	v20.729h-1.413v-21.536c2.168-1.159,5.85-2.675,9.783-2.675c3.078,0,5.35,0.96,6.76,2.927c2.424-1.463,5.851-2.927,10.038-2.927
	C398.601,499.032,401.776,501.707,401.776,507.759z"/>
<path d="M445.583,523.243c-6.913-9.684-13.872-19.367-20.831-29.051v29.051h-1.413v-31.27h1.513l20.831,29.102v-29.102h1.41v31.27
	H445.583z"/>
<path d="M474.745,511.238c-0.05,0.606-0.05,0.759-0.05,0.858H455.48c0,0.456,0.1,0.808,0.199,1.111
	c0.354,6.708,4.641,9.025,9.733,9.025c2.876,0,5.7-0.556,7.667-1.563v1.463c-2.119,0.907-4.992,1.464-7.767,1.464
	c-5.599,0-11.297-2.622-11.297-11.955c0-4.791,1.814-12.558,10.642-12.558C474.239,499.085,474.745,509.021,474.745,511.238z
	 M455.48,510.838h17.802v-0.556c-0.103-2.622-1.109-9.886-8.674-9.886C458.103,500.396,455.63,505.137,455.48,510.838z"/>
<path d="M488.225,523.243h-1.313l-8.622-23.807h1.511l7.77,21.737l7.261-21.737h1.264c2.471,7.264,4.841,14.526,7.311,21.737
	l7.768-21.737h1.516l-8.627,23.807h-1.361l-7.214-21.636L488.225,523.243z"/>
<path d="M554.873,491.974l-11.7,18.156v13.113h-1.361V510.13l-11.653-18.156h1.666l10.693,16.792l10.641-16.792H554.873z"/>
<path d="M577.682,511.391c0,10.035-6.002,12.207-11.047,12.207c-5.093,0-11.197-2.172-11.197-12.207
	c0-10.137,6.104-12.358,11.197-12.358C571.68,499.032,577.682,501.254,577.682,511.391z M576.269,511.391
	c0-8.677-4.589-11.047-9.634-11.047c-5.043,0-9.783,2.37-9.783,11.047c0,8.575,4.74,10.945,9.783,10.945
	C571.68,522.336,576.269,519.966,576.269,511.391z"/>
<path d="M585.563,502.161v21.082h-1.417v-21.989c1.463-0.606,5.701-2.119,10.796-2.222v1.364
	C590.755,500.548,587.325,501.555,585.563,502.161z"/>
<path d="M617.849,523.243h-1.867L605.34,511.14l-3.886,4.082v8.021h-1.361v-33.037h1.361v23.049l13.163-13.818h1.867l-10.236,10.746
	L617.849,523.243z"/>
<path d="M623.555,519.261h1.514v3.982h-1.514V519.261z"/>
</svg>
